<svg id="Grupo_228" data-name="Grupo 228" xmlns="http://www.w3.org/2000/svg" width="24" height="24" viewBox="0 0 24 24">
  <path id="Caminho_118" data-name="Caminho 118" d="M0,0H24V24H0Z" fill="none"/>
  <ellipse id="Elipse_7" data-name="Elipse 7" cx="5" cy="3" rx="5" ry="3" transform="translate(11 3)" fill="none" stroke="#fff" stroke-linecap="round" stroke-linejoin="round" stroke-width="1.5"/>
  <path id="Caminho_119" data-name="Caminho 119" d="M11,6v4c0,1.657,2.239,3,5,3s5-1.343,5-3V6" fill="none" stroke="#fff" stroke-linecap="round" stroke-linejoin="round" stroke-width="1.5"/>
  <path id="Caminho_120" data-name="Caminho 120" d="M11,10v4c0,1.657,2.239,3,5,3s5-1.343,5-3V10" fill="none" stroke="#fff" stroke-linecap="round" stroke-linejoin="round" stroke-width="1.5"/>
  <path id="Caminho_121" data-name="Caminho 121" d="M11,14v4c0,1.657,2.239,3,5,3s5-1.343,5-3V14" fill="none" stroke="#fff" stroke-linecap="round" stroke-linejoin="round" stroke-width="1.5"/>
  <path id="Caminho_122" data-name="Caminho 122" d="M7,9H4.5a1.5,1.5,0,0,0,0,3h1a1.5,1.5,0,0,1,0,3H3" fill="none" stroke="#fff" stroke-linecap="round" stroke-linejoin="round" stroke-width="1.5"/>
  <path id="Caminho_123" data-name="Caminho 123" d="M5,15v1M5,8V9" fill="none" stroke="#fff" stroke-linecap="round" stroke-linejoin="round" stroke-width="1.5"/>
</svg>
