<svg xmlns="http://www.w3.org/2000/svg" xmlns:xlink="http://www.w3.org/1999/xlink" width="80.821" height="81.133" viewBox="0 0 80.821 81.133">
  <defs>
    <linearGradient id="linear-gradient" x1="1.559" y1="0.631" x2="-0.106" y2="6.746" gradientUnits="objectBoundingBox">
      <stop offset="0" stop-color="#8743ff"/>
      <stop offset="1" stop-color="#4136f1"/>
    </linearGradient>
    <filter id="Caminho_146" x="12.126" y="0.102" width="56.602" height="50.474" filterUnits="userSpaceOnUse">
      <feOffset input="SourceAlpha"/>
      <feGaussianBlur stdDeviation="7.5" result="blur"/>
      <feFlood flood-color="#6e65fe" flood-opacity="0.412"/>
      <feComposite operator="in" in2="blur"/>
      <feComposite in="SourceGraphic"/>
    </filter>
    <filter id="Caminho_147" x="0" y="0" width="80.821" height="81.133" filterUnits="userSpaceOnUse">
      <feOffset input="SourceAlpha"/>
      <feGaussianBlur stdDeviation="7.5" result="blur-2"/>
      <feFlood flood-color="#6e65fe" flood-opacity="0.259"/>
      <feComposite operator="in" in2="blur-2"/>
      <feComposite in="SourceGraphic"/>
    </filter>
  </defs>
  <g id="Layer_3" data-name="Layer 3" transform="translate(22.505 22.5)">
    <g transform="matrix(1, 0, 0, 1, -22.51, -22.5)" filter="url(#Caminho_146)">
      <path id="Caminho_146-2" data-name="Caminho 146" d="M856.622,450.249a2.667,2.667,0,0,1-2.807,2.5,2.987,2.987,0,0,1-1.985-.733l-.023-.022-2.8-2.818a1.833,1.833,0,0,0-2.382.02,1.388,1.388,0,0,0,.022,2.122,1.835,1.835,0,0,0,2.359,0l.144-.146a.61.61,0,0,1,.794-.043.463.463,0,0,1,.048.706l-.156.157-.023.022a3.055,3.055,0,0,1-3.97,0,3.2,3.2,0,0,1,0-4.283c1.1-.977,2.873-.231,3.97.746h0l.023.022,2.8,2.818a1.833,1.833,0,0,0,2.382-.02,1.389,1.389,0,0,0-.022-2.122,1.835,1.835,0,0,0-2.359,0l-.144.146a.61.61,0,0,1-.792.043.463.463,0,0,1-.048-.706l.156-.157.023-.022c1.1-.977,2.873-1.723,3.97-.746A4.274,4.274,0,0,1,856.622,450.249Z" transform="translate(-810.39 -424.67)" fill="url(#linear-gradient)"/>
    </g>
    <g transform="matrix(1, 0, 0, 1, -22.51, -22.5)" filter="url(#Caminho_147)">
      <path id="Caminho_147-2" data-name="Caminho 147" d="M554.324,455.339h-4.448l.306-1.53c.046-.01.091-.023.136-.037l4.477-1.492c.784-.261,1.2-2.225.944-3.007s-1.106-.085-1.888.175l-3,1,.455-2.276c.161-.808-1.109-3.46-1.917-3.622s-.848,2.228-1.01,3.036l-1.4,7.02-1,1-2.853,1.425.706-2.822c.2-.8-.286-2.281-1.086-2.481s-1.61.958-1.81,1.758l-1.492,5.969a.078.078,0,0,1,0,.018l-.006.028c-.008.035-.014.071-.019.106l0,.023c0,.04-.008.079-.01.119v2.877a4.266,4.266,0,0,0-.441.149,2.956,2.956,0,0,1-2.107,0,4.156,4.156,0,0,0-.437-.146v-2.88a.9.9,0,0,0-.01-.118.16.16,0,0,0,0-.023c-.005-.037-.012-.072-.019-.107a.124.124,0,0,0-.006-.028l0-.018-1.492-5.969c-.2-.8-1.01-1.958-1.81-1.758s-1.286,1.682-1.086,2.481l.706,2.822-2.859-1.427-1-1-1.4-7.02c-.161-.808-.2-3.2-1.01-3.036s-2.079,2.813-1.917,3.622l.455,2.276-3-1c-.784-.261-1.627-.957-1.888-.175s.162,2.746.944,3.007l4.477,1.492a1.213,1.213,0,0,0,.136.037l.306,1.53-4.448,0c-.825,0-1.492-1.2-1.492-.373s.669,3.358,1.492,3.358h7.107l4.833,2.416v2.022a3.038,3.038,0,0,0-.855.641,4.164,4.164,0,0,0-.788,1.241,7.275,7.275,0,0,0-3.279-1.5c-.981-.173-2.039.3-3.177.394-1.164.095-1.773.906-1.082,1.848a11.015,11.015,0,0,1,.74,1.194,7.752,7.752,0,0,1,.49,1.073,6.589,6.589,0,0,0,3.911,4.1,10.929,10.929,0,0,0,3.266.456,7.442,7.442,0,0,1,.929,2.963c0,.019,0,.045-.005.079a6.873,6.873,0,0,0,.272,2.391,4.228,4.228,0,0,0,8.113,0,6.872,6.872,0,0,0,.273-2.391c0-.034,0-.059-.005-.079a7.445,7.445,0,0,1,.929-2.963,10.927,10.927,0,0,0,3.263-.455,6.59,6.59,0,0,0,3.912-4.1,7.8,7.8,0,0,1,.49-1.074,11.028,11.028,0,0,1,.74-1.194c.69-.941.081-1.754-1.082-1.848-1.138-.093-2.2-.567-3.175-.394a7.28,7.28,0,0,0-3.281,1.5,4.306,4.306,0,0,0-.623-1.054,3.164,3.164,0,0,0-1.02-.821v-2.03l4.833-2.415h7.107c.824,0,1.492-2.533,1.492-3.358S555.149,455.339,554.324,455.339ZM541,468.215c0,.883-1.351,1.767-1.791,2.58-.784,1.443-.149,2.835-.149,4.117l.007.131c0-.01,0-.01,0,.037a3.452,3.452,0,0,1-.126,1.157c-.172.563-.432.047-1.031.047s-.858.515-1.03-.047a3.449,3.449,0,0,1-.126-1.157l0-.037.007-.131c0-1.283.632-2.674-.151-4.118-.441-.813-1.791-1.7-1.791-2.579v-.1a2.361,2.361,0,0,1,.39-1.59.212.212,0,0,1,.146-.033,2.411,2.411,0,0,1,.7.123,5.085,5.085,0,0,0,3.711,0,2.344,2.344,0,0,1,.693-.124.221.221,0,0,1,.182.064,2.512,2.512,0,0,1,.36,1.557Z" transform="translate(-497.49 -422.04)" fill="url(#linear-gradient)"/>
    </g>
  </g>
</svg>
