<svg xmlns="http://www.w3.org/2000/svg" xmlns:xlink="http://www.w3.org/1999/xlink" width="146.916" height="147.801" viewBox="0 0 146.916 147.801">
  <defs>
    <linearGradient id="linear-gradient" x1="1.559" y1="0.631" x2="-0.106" y2="6.746" gradientUnits="objectBoundingBox">
      <stop offset="0" stop-color="#8743ff"/>
      <stop offset="1" stop-color="#4136f1"/>
    </linearGradient>
    <filter id="Caminho_146" x="34.5" y="0.29" width="78.009" height="60.575" filterUnits="userSpaceOnUse">
      <feOffset input="SourceAlpha"/>
      <feGaussianBlur stdDeviation="7.5" result="blur"/>
      <feFlood flood-color="#6e65fe" flood-opacity="0.412"/>
      <feComposite operator="in" in2="blur"/>
      <feComposite in="SourceGraphic"/>
    </filter>
    <filter id="Caminho_147" x="0" y="0" width="146.916" height="147.801" filterUnits="userSpaceOnUse">
      <feOffset input="SourceAlpha"/>
      <feGaussianBlur stdDeviation="7.5" result="blur-2"/>
      <feFlood flood-color="#6e65fe" flood-opacity="0.259"/>
      <feComposite operator="in" in2="blur-2"/>
      <feComposite in="SourceGraphic"/>
    </filter>
  </defs>
  <g id="Logo" transform="translate(22.505 22.5)">
    <g transform="matrix(1, 0, 0, 1, -22.51, -22.5)" filter="url(#Caminho_146)">
      <path id="Caminho_146-2" data-name="Caminho 146" d="M878.029,455.737c0,3.927-3.576,7.112-7.986,7.112a8.5,8.5,0,0,1-5.648-2.085l-.066-.063-7.968-8.017a5.215,5.215,0,0,0-6.776.057,3.95,3.95,0,0,0,.064,6.039,5.22,5.22,0,0,0,6.713,0l.411-.414a1.737,1.737,0,0,1,2.258-.122,1.317,1.317,0,0,1,.137,2.009l-.445.448-.066.063a8.691,8.691,0,0,1-11.3,0c-3.122-2.78-3.12-9.408,0-12.187s8.173-.657,11.3,2.123h0l.066.063,7.968,8.017a5.215,5.215,0,0,0,6.776-.057,3.95,3.95,0,0,0-.064-6.039,5.22,5.22,0,0,0-6.713,0l-.411.414a1.737,1.737,0,0,1-2.255.121,1.316,1.316,0,0,1-.137-2.008l.445-.448.066-.063c3.12-2.78,8.173-4.9,11.3-2.123C877.188,449.912,878.029,453.845,878.029,455.737Z" transform="translate(-788.02 -424.48)" fill="url(#linear-gradient)"/>
    </g>
    <g transform="matrix(1, 0, 0, 1, -22.51, -22.5)" filter="url(#Caminho_147)">
      <path id="Caminho_147-2" data-name="Caminho 147" d="M617.665,475.265H605.01l.87-4.352c.13-.03.259-.066.387-.106l12.738-4.246c2.229-.743,3.426-6.331,2.685-8.555s-3.147-.243-5.372.5l-8.527,2.842,1.295-6.475c.46-2.3-3.155-9.844-5.455-10.3s-2.414,6.339-2.873,8.638l-3.994,19.973-2.843,2.846-8.116,4.054,2.007-8.029c.569-2.275-.814-6.491-3.09-7.06s-4.58,2.725-5.149,5l-4.246,16.983a.224.224,0,0,1-.012.05c0,.017-.012.053-.017.08-.022.1-.04.2-.055.3l-.01.066c-.014.113-.022.225-.028.338v8.186a12.151,12.151,0,0,0-1.255.425,8.408,8.408,0,0,1-6,0,11.839,11.839,0,0,0-1.243-.416v-8.195a2.558,2.558,0,0,0-.028-.336.447.447,0,0,0-.01-.066c-.015-.106-.033-.2-.055-.3a.353.353,0,0,0-.017-.08c-.006-.027-.007-.034-.012-.05l-4.246-16.983c-.569-2.276-2.874-5.57-5.149-5s-3.659,4.785-3.09,7.06l2.007,8.029-8.133-4.059-2.843-2.846L541.146,453.2c-.46-2.3-.574-9.1-2.873-8.638s-5.914,8-5.455,10.3l1.295,6.475-8.527-2.847c-2.229-.743-4.63-2.723-5.372-.5s.461,7.813,2.687,8.555l12.738,4.246a3.442,3.442,0,0,0,.387.106l.87,4.352-12.655.01c-2.346,0-4.246-3.405-4.246-1.061s1.9,9.553,4.246,9.553h20.22l13.75,6.874v5.753a8.641,8.641,0,0,0-2.433,1.824,11.842,11.842,0,0,0-2.241,3.531,20.7,20.7,0,0,0-9.328-4.272c-2.791-.491-5.8.857-9.038,1.121-3.311.27-5.043,2.578-3.078,5.256a31.32,31.32,0,0,1,2.1,3.4,22.045,22.045,0,0,1,1.395,3.053,18.747,18.747,0,0,0,11.126,11.652,31.1,31.1,0,0,0,9.291,1.3,21.175,21.175,0,0,1,2.644,8.429c0,.055-.008.127-.015.225a19.554,19.554,0,0,0,.774,6.8c1.583,5.181,5.469,8.642,11.54,8.642s9.957-3.46,11.542-8.641a19.548,19.548,0,0,0,.776-6.8c-.006-.1-.012-.169-.015-.224a21.183,21.183,0,0,1,2.643-8.43,31.091,31.091,0,0,0,9.285-1.294,18.748,18.748,0,0,0,11.13-11.655,22.218,22.218,0,0,1,1.394-3.055,31.381,31.381,0,0,1,2.106-3.4c1.964-2.678.23-4.989-3.078-5.256-3.237-.264-6.249-1.612-9.033-1.121a20.712,20.712,0,0,0-9.335,4.273,12.245,12.245,0,0,0-1.772-3,9,9,0,0,0-2.9-2.335v-5.774l13.749-6.872h20.221c2.345,0,4.246-7.207,4.246-9.553S620.011,475.265,617.665,475.265Zm-37.9,36.632c0,2.511-3.842,5.026-5.095,7.34-2.229,4.107-.425,8.067-.425,11.714l.019.372c0-.028,0-.028.006.106a9.82,9.82,0,0,1-.358,3.291c-.49,1.6-1.228.135-2.933.135s-2.441,1.466-2.931-.133a9.816,9.816,0,0,1-.358-3.291l.007-.106.019-.373c0-3.65,1.8-7.608-.43-11.716-1.254-2.312-5.095-4.825-5.095-7.338v-.276c0-2.465.475-3.842,1.109-4.523a.6.6,0,0,1,.415-.093,6.862,6.862,0,0,1,1.982.351,14.469,14.469,0,0,0,10.557,0,6.669,6.669,0,0,1,1.971-.351.629.629,0,0,1,.517.183c.6.731,1.025,2.112,1.025,4.429Z" transform="translate(-497.49 -422.04)" fill="url(#linear-gradient)"/>
    </g>
  </g>
</svg>
