<svg id="Grupo_230" data-name="Grupo 230" xmlns="http://www.w3.org/2000/svg" width="24" height="24" viewBox="0 0 24 24">
  <path id="Caminho_126" data-name="Caminho 126" d="M0,0H24V24H0Z" fill="none"/>
  <path id="Caminho_127" data-name="Caminho 127" d="M18,8a3,3,0,0,1,0,6" fill="none" stroke="#fff" stroke-linecap="round" stroke-linejoin="round" stroke-width="1.5"/>
  <path id="Caminho_128" data-name="Caminho 128" d="M10,8V19a1,1,0,0,1-1,1H8a1,1,0,0,1-1-1V14" fill="none" stroke="#fff" stroke-linecap="round" stroke-linejoin="round" stroke-width="1.5"/>
  <path id="Caminho_129" data-name="Caminho 129" d="M12,8h0l4.524-3.77A.9.9,0,0,1,18,4.922V17.078a.9.9,0,0,1-1.476.692L12,14H4a1,1,0,0,1-1-1V9A1,1,0,0,1,4,8h8" fill="none" stroke="#fff" stroke-linecap="round" stroke-linejoin="round" stroke-width="1.5"/>
</svg>
